<svg xmlns="http://www.w3.org/2000/svg" xmlns:xlink="http://www.w3.org/1999/xlink" width="500" zoomAndPan="magnify" viewBox="0 0 375 374.999991" height="500" preserveAspectRatio="xMidYMid meet" version="1.0"><defs><g/></defs><rect x="-37.5" width="450" fill="#ffffff" y="-37.499999" height="449.999989" fill-opacity="1"/><rect x="-37.5" width="450" fill="#ffffff" y="-37.499999" height="449.999989" fill-opacity="1"/><g fill="#000000" fill-opacity="1"><g transform="translate(50.763388, 178.763806)"><g><path d="M 2.25 -23.9375 C 2.25 -28.65625 3.265625 -32.859375 5.296875 -36.546875 C 7.335938 -40.242188 10.179688 -43.125 13.828125 -45.1875 C 17.484375 -47.25 21.625 -48.28125 26.25 -48.28125 C 31.914062 -48.28125 36.765625 -46.78125 40.796875 -43.78125 C 44.835938 -40.789062 47.535156 -36.710938 48.890625 -31.546875 L 36.109375 -31.546875 C 35.160156 -33.546875 33.8125 -35.066406 32.0625 -36.109375 C 30.3125 -37.148438 28.328125 -37.671875 26.109375 -37.671875 C 22.523438 -37.671875 19.625 -36.421875 17.40625 -33.921875 C 15.1875 -31.429688 14.078125 -28.101562 14.078125 -23.9375 C 14.078125 -19.769531 15.1875 -16.4375 17.40625 -13.9375 C 19.625 -11.445312 22.523438 -10.203125 26.109375 -10.203125 C 28.328125 -10.203125 30.3125 -10.722656 32.0625 -11.765625 C 33.8125 -12.804688 35.160156 -14.320312 36.109375 -16.3125 L 48.890625 -16.3125 C 47.535156 -11.144531 44.835938 -7.078125 40.796875 -4.109375 C 36.765625 -1.140625 31.914062 0.34375 26.25 0.34375 C 21.625 0.34375 17.484375 -0.6875 13.828125 -2.75 C 10.179688 -4.8125 7.335938 -7.675781 5.296875 -11.34375 C 3.265625 -15.019531 2.25 -19.21875 2.25 -23.9375 Z M 2.25 -23.9375 "/></g></g></g><g fill="#000000" fill-opacity="1"><g transform="translate(102.573454, 178.763806)"><g><path d="M 28.5625 0 L 18.625 -18.015625 L 15.84375 -18.015625 L 15.84375 0 L 4.21875 0 L 4.21875 -47.734375 L 23.734375 -47.734375 C 27.492188 -47.734375 30.695312 -47.078125 33.34375 -45.765625 C 36 -44.453125 37.984375 -42.648438 39.296875 -40.359375 C 40.617188 -38.066406 41.28125 -35.515625 41.28125 -32.703125 C 41.28125 -29.535156 40.382812 -26.703125 38.59375 -24.203125 C 36.800781 -21.710938 34.160156 -19.945312 30.671875 -18.90625 L 41.6875 0 Z M 15.84375 -26.25 L 23.046875 -26.25 C 25.179688 -26.25 26.78125 -26.769531 27.84375 -27.8125 C 28.90625 -28.851562 29.4375 -30.328125 29.4375 -32.234375 C 29.4375 -34.046875 28.90625 -35.472656 27.84375 -36.515625 C 26.78125 -37.554688 25.179688 -38.078125 23.046875 -38.078125 L 15.84375 -38.078125 Z M 15.84375 -26.25 "/></g></g></g><g fill="#000000" fill-opacity="1"><g transform="translate(146.904372, 178.763806)"><g><path d="M 45.15625 -47.734375 L 28.625 -15.78125 L 28.625 0 L 17 0 L 17 -15.78125 L 0.46875 -47.734375 L 13.671875 -47.734375 L 22.921875 -27.75 L 32.09375 -47.734375 Z M 45.15625 -47.734375 "/></g></g></g><g fill="#000000" fill-opacity="1"><g transform="translate(192.527145, 178.763806)"><g><path d="M 40.59375 -32.375 C 40.59375 -29.601562 39.957031 -27.070312 38.6875 -24.78125 C 37.414062 -22.5 35.46875 -20.65625 32.84375 -19.25 C 30.21875 -17.84375 26.953125 -17.140625 23.046875 -17.140625 L 15.84375 -17.140625 L 15.84375 0 L 4.21875 0 L 4.21875 -47.734375 L 23.046875 -47.734375 C 26.859375 -47.734375 30.078125 -47.078125 32.703125 -45.765625 C 35.335938 -44.453125 37.3125 -42.640625 38.625 -40.328125 C 39.9375 -38.015625 40.59375 -35.363281 40.59375 -32.375 Z M 22.171875 -26.390625 C 24.390625 -26.390625 26.039062 -26.910156 27.125 -27.953125 C 28.21875 -28.992188 28.765625 -30.46875 28.765625 -32.375 C 28.765625 -34.269531 28.21875 -35.738281 27.125 -36.78125 C 26.039062 -37.832031 24.390625 -38.359375 22.171875 -38.359375 L 15.84375 -38.359375 L 15.84375 -26.390625 Z M 22.171875 -26.390625 "/></g></g></g><g fill="#000000" fill-opacity="1"><g transform="translate(234.954282, 178.763806)"><g><path d="M 38.5625 -47.734375 L 38.5625 -38.421875 L 25.90625 -38.421875 L 25.90625 0 L 14.28125 0 L 14.28125 -38.421875 L 1.625 -38.421875 L 1.625 -47.734375 Z M 38.5625 -47.734375 "/></g></g></g><g fill="#000000" fill-opacity="1"><g transform="translate(275.137679, 178.763806)"><g><path d="M 26.796875 0.46875 C 22.304688 0.46875 18.191406 -0.570312 14.453125 -2.65625 C 10.710938 -4.738281 7.742188 -7.648438 5.546875 -11.390625 C 3.347656 -15.128906 2.25 -19.332031 2.25 -24 C 2.25 -28.675781 3.347656 -32.867188 5.546875 -36.578125 C 7.742188 -40.296875 10.710938 -43.195312 14.453125 -45.28125 C 18.191406 -47.375 22.304688 -48.421875 26.796875 -48.421875 C 31.285156 -48.421875 35.398438 -47.375 39.140625 -45.28125 C 42.878906 -43.195312 45.820312 -40.296875 47.96875 -36.578125 C 50.125 -32.867188 51.203125 -28.675781 51.203125 -24 C 51.203125 -19.332031 50.113281 -15.128906 47.9375 -11.390625 C 45.757812 -7.648438 42.8125 -4.738281 39.09375 -2.65625 C 35.382812 -0.570312 31.285156 0.46875 26.796875 0.46875 Z M 26.796875 -10.125 C 30.597656 -10.125 33.644531 -11.394531 35.9375 -13.9375 C 38.226562 -16.476562 39.375 -19.832031 39.375 -24 C 39.375 -28.21875 38.226562 -31.582031 35.9375 -34.09375 C 33.644531 -36.613281 30.597656 -37.875 26.796875 -37.875 C 22.941406 -37.875 19.867188 -36.625 17.578125 -34.125 C 15.285156 -31.632812 14.140625 -28.257812 14.140625 -24 C 14.140625 -19.789062 15.285156 -16.425781 17.578125 -13.90625 C 19.867188 -11.382812 22.941406 -10.125 26.796875 -10.125 Z M 26.796875 -10.125 "/></g></g></g><g fill="#000000" fill-opacity="1"><g transform="translate(60.698776, 257.239553)"><g><path d="M 4.546875 -6.5 C 12.078125 -12.550781 17.976562 -17.519531 22.25 -21.40625 C 26.53125 -25.300781 30.140625 -29.367188 33.078125 -33.609375 C 36.015625 -37.847656 37.484375 -42.019531 37.484375 -46.125 C 37.484375 -49.976562 36.546875 -53.015625 34.671875 -55.234375 C 32.804688 -57.460938 29.796875 -58.578125 25.640625 -58.578125 C 21.609375 -58.578125 18.476562 -57.316406 16.25 -54.796875 C 14.019531 -52.273438 12.816406 -48.90625 12.640625 -44.6875 L 4.8125 -44.6875 C 5.039062 -51.34375 7.054688 -56.476562 10.859375 -60.09375 C 14.660156 -63.71875 19.554688 -65.53125 25.546875 -65.53125 C 31.660156 -65.53125 36.515625 -63.835938 40.109375 -60.453125 C 43.703125 -57.066406 45.5 -52.40625 45.5 -46.46875 C 45.5 -41.539062 44.03125 -36.75 41.09375 -32.09375 C 38.15625 -27.4375 34.816406 -23.34375 31.078125 -19.8125 C 27.335938 -16.28125 22.554688 -12.171875 16.734375 -7.484375 L 47.359375 -7.484375 L 47.359375 -0.71875 L 4.546875 -0.71875 Z M 4.546875 -6.5 "/></g></g></g><g fill="#000000" fill-opacity="1"><g transform="translate(126.046619, 257.239553)"><g><path d="M 5.515625 -32.859375 C 5.515625 -43.066406 7.175781 -51.03125 10.5 -56.75 C 13.820312 -62.476562 19.640625 -65.34375 27.953125 -65.34375 C 36.203125 -65.34375 41.988281 -62.476562 45.3125 -56.75 C 48.632812 -51.03125 50.296875 -43.066406 50.296875 -32.859375 C 50.296875 -22.460938 48.632812 -14.382812 45.3125 -8.625 C 41.988281 -2.875 36.203125 0 27.953125 0 C 19.640625 0 13.820312 -2.875 10.5 -8.625 C 7.175781 -14.382812 5.515625 -22.460938 5.515625 -32.859375 Z M 42.296875 -32.859375 C 42.296875 -38.015625 41.953125 -42.390625 41.265625 -45.984375 C 40.578125 -49.578125 39.179688 -52.46875 37.078125 -54.65625 C 34.972656 -56.851562 31.929688 -57.953125 27.953125 -57.953125 C 23.921875 -57.953125 20.847656 -56.851562 18.734375 -54.65625 C 16.628906 -52.46875 15.234375 -49.578125 14.546875 -45.984375 C 13.867188 -42.390625 13.53125 -38.015625 13.53125 -32.859375 C 13.53125 -27.515625 13.867188 -23.03125 14.546875 -19.40625 C 15.234375 -15.789062 16.628906 -12.882812 18.734375 -10.6875 C 20.847656 -8.488281 23.921875 -7.390625 27.953125 -7.390625 C 31.929688 -7.390625 34.972656 -8.488281 37.078125 -10.6875 C 39.179688 -12.882812 40.578125 -15.789062 41.265625 -19.40625 C 41.953125 -23.03125 42.296875 -27.515625 42.296875 -32.859375 Z M 42.296875 -32.859375 "/></g></g></g><g fill="#000000" fill-opacity="1"><g transform="translate(196.112906, 257.239553)"><g><path d="M 5.34375 -48.171875 C 5.757812 -53.628906 7.863281 -57.898438 11.65625 -60.984375 C 15.457031 -64.066406 20.382812 -65.609375 26.4375 -65.609375 C 30.476562 -65.609375 33.96875 -64.878906 36.90625 -63.421875 C 39.84375 -61.972656 42.066406 -60.003906 43.578125 -57.515625 C 45.085938 -55.023438 45.84375 -52.207031 45.84375 -49.0625 C 45.84375 -45.375 44.789062 -42.195312 42.6875 -39.53125 C 40.582031 -36.863281 37.835938 -35.140625 34.453125 -34.359375 L 34.453125 -33.921875 C 38.304688 -32.972656 41.363281 -31.101562 43.625 -28.3125 C 45.882812 -25.519531 47.015625 -21.867188 47.015625 -17.359375 C 47.015625 -13.972656 46.238281 -10.929688 44.6875 -8.234375 C 43.144531 -5.535156 40.832031 -3.414062 37.75 -1.875 C 34.664062 -0.332031 30.957031 0.4375 26.625 0.4375 C 20.332031 0.4375 15.164062 -1.207031 11.125 -4.5 C 7.09375 -7.789062 4.835938 -12.460938 4.359375 -18.515625 L 12.203125 -18.515625 C 12.617188 -14.953125 14.070312 -12.039062 16.5625 -9.78125 C 19.050781 -7.53125 22.375 -6.40625 26.53125 -6.40625 C 30.6875 -6.40625 33.847656 -7.488281 36.015625 -9.65625 C 38.179688 -11.820312 39.265625 -14.628906 39.265625 -18.078125 C 39.265625 -22.523438 37.78125 -25.726562 34.8125 -27.6875 C 31.84375 -29.644531 27.363281 -30.625 21.375 -30.625 L 19.3125 -30.625 L 19.3125 -37.390625 L 21.453125 -37.390625 C 26.910156 -37.453125 31.035156 -38.359375 33.828125 -40.109375 C 36.617188 -41.859375 38.015625 -44.570312 38.015625 -48.25 C 38.015625 -51.394531 36.988281 -53.914062 34.9375 -55.8125 C 32.894531 -57.71875 29.972656 -58.671875 26.171875 -58.671875 C 22.492188 -58.671875 19.523438 -57.71875 17.265625 -55.8125 C 15.015625 -53.914062 13.679688 -51.367188 13.265625 -48.171875 Z M 5.34375 -48.171875 "/></g></g></g><g fill="#000000" fill-opacity="1"><g transform="translate(262.707124, 257.239553)"><g><path d="M 5.515625 -32.859375 C 5.515625 -43.066406 7.175781 -51.03125 10.5 -56.75 C 13.820312 -62.476562 19.640625 -65.34375 27.953125 -65.34375 C 36.203125 -65.34375 41.988281 -62.476562 45.3125 -56.75 C 48.632812 -51.03125 50.296875 -43.066406 50.296875 -32.859375 C 50.296875 -22.460938 48.632812 -14.382812 45.3125 -8.625 C 41.988281 -2.875 36.203125 0 27.953125 0 C 19.640625 0 13.820312 -2.875 10.5 -8.625 C 7.175781 -14.382812 5.515625 -22.460938 5.515625 -32.859375 Z M 42.296875 -32.859375 C 42.296875 -38.015625 41.953125 -42.390625 41.265625 -45.984375 C 40.578125 -49.578125 39.179688 -52.46875 37.078125 -54.65625 C 34.972656 -56.851562 31.929688 -57.953125 27.953125 -57.953125 C 23.921875 -57.953125 20.847656 -56.851562 18.734375 -54.65625 C 16.628906 -52.46875 15.234375 -49.578125 14.546875 -45.984375 C 13.867188 -42.390625 13.53125 -38.015625 13.53125 -32.859375 C 13.53125 -27.515625 13.867188 -23.03125 14.546875 -19.40625 C 15.234375 -15.789062 16.628906 -12.882812 18.734375 -10.6875 C 20.847656 -8.488281 23.921875 -7.390625 27.953125 -7.390625 C 31.929688 -7.390625 34.972656 -8.488281 37.078125 -10.6875 C 39.179688 -12.882812 40.578125 -15.789062 41.265625 -19.40625 C 41.953125 -23.03125 42.296875 -27.515625 42.296875 -32.859375 Z M 42.296875 -32.859375 "/></g></g></g></svg>