<svg width="293" height="36" viewBox="0 0 293 36" fill="none" xmlns="http://www.w3.org/2000/svg">
<g clip-path="url(#clip0_6_412)">
<path d="M70.0351 23.9636C71.1173 24.6364 72.7045 25.2 74.3638 25.2C76.8348 25.2 78.2777 23.8909 78.2777 21.9818C78.2777 20.2182 77.2857 19.2182 74.7426 18.2364C71.6944 17.1455 69.8006 15.5455 69.8006 12.8909C69.8006 9.94546 72.2175 7.76364 75.8608 7.76364C77.7727 7.76364 79.1615 8.21818 79.9911 8.69091L79.3238 10.6727C78.7105 10.3455 77.466 9.78182 75.7706 9.78182C73.2095 9.78182 72.2355 11.3273 72.2355 12.6C72.2355 14.3636 73.3718 15.2364 75.951 16.2364C79.1074 17.4727 80.7306 19 80.7306 21.7818C80.7306 24.6909 78.5843 27.2182 74.1834 27.2182C72.3798 27.2182 70.4138 26.6909 69.4038 26.0182L70.0351 23.9636Z" fill="white"/>
<path d="M99.831 18.6364C99.6867 16 99.5244 12.8364 99.5604 10.4909H99.4703C98.839 12.7091 98.0454 15.0545 97.1075 17.6545L93.8068 26.8H91.9671L88.937 17.8182C88.0533 15.1636 87.2957 12.7273 86.7727 10.4909H86.7186C86.6645 12.8364 86.5202 16 86.3579 18.8364L85.8528 26.9273H83.5442L84.8428 8.05455H87.927L91.1194 17.1818C91.895 19.5091 92.5443 21.5818 93.0133 23.5273H93.1034C93.5724 21.6182 94.2397 19.5455 95.0694 17.1818L98.4061 8.05455H101.49L102.663 26.9273H100.3L99.831 18.6364Z" fill="white"/>
<path d="M109.138 21L107.19 26.9273H104.683L111.05 8.05455H113.972L120.356 26.9273H117.777L115.775 21H109.138ZM115.27 19.0909L113.43 13.6545C113.016 12.4182 112.745 11.3091 112.457 10.2182H112.402C112.132 11.3455 111.825 12.4909 111.465 13.6364L109.625 19.0909H115.27Z" fill="white"/>
<path d="M123.098 8.30909C124.324 8.05455 126.074 7.90909 127.733 7.90909C130.312 7.90909 131.99 8.38182 133.144 9.45455C134.082 10.2909 134.623 11.5818 134.623 13.0364C134.623 15.5273 133.072 17.1818 131.088 17.8545V17.9455C132.531 18.4545 133.397 19.8 133.829 21.7455C134.443 24.3818 134.894 26.2 135.272 26.9273H132.765C132.459 26.4 132.044 24.7636 131.521 22.4182C130.962 19.8182 129.97 18.8364 127.769 18.7455H125.497V26.9273H123.08V8.30909H123.098ZM125.515 16.9091H127.986C130.565 16.9091 132.206 15.4727 132.206 13.3273C132.206 10.8909 130.457 9.83636 127.896 9.8C126.723 9.8 125.893 9.90909 125.515 10.0182V16.9091Z" fill="white"/>
<path d="M141.838 10.1273H136.138V8.07273H149.99V10.1455H144.291V26.9455H141.856V10.1273H141.838Z" fill="white"/>
<path d="M156.249 18.4545V20.2727H149.395V18.4545H156.249Z" fill="white"/>
<path d="M169.199 26.4182C168.567 26.7455 167.143 27.2 165.339 27.2C161.281 27.2 158.647 24.4364 158.647 20.2909C158.647 16.1273 161.479 13.0909 165.862 13.0909C167.305 13.0909 168.585 13.4545 169.253 13.7818L168.694 15.6909C168.117 15.3636 167.197 15.0545 165.862 15.0545C162.778 15.0545 161.118 17.3455 161.118 20.1818C161.118 23.3091 163.12 25.2545 165.79 25.2545C167.179 25.2545 168.098 24.8909 168.784 24.5818L169.199 26.4182Z" fill="white"/>
<path d="M184.043 20.0364C184.043 25.0545 180.598 27.2364 177.351 27.2364C173.708 27.2364 170.912 24.5455 170.912 20.2727C170.912 15.7455 173.852 13.0727 177.568 13.0727C181.445 13.0727 184.043 15.9091 184.043 20.0364ZM173.383 20.1818C173.383 23.1455 175.079 25.3818 177.459 25.3818C179.786 25.3818 181.536 23.1636 181.536 20.1273C181.536 17.8364 180.399 14.9273 177.513 14.9273C174.628 14.9273 173.383 17.6182 173.383 20.1818Z" fill="white"/>
<path d="M187.127 17.0545C187.127 15.6545 187.091 14.5091 187.019 13.3818H189.165L189.273 15.5636H189.363C190.121 14.2727 191.365 13.0727 193.584 13.0727C195.423 13.0727 196.812 14.2 197.389 15.7818H197.444C197.858 15.0182 198.381 14.4364 198.941 14.0182C199.752 13.4 200.636 13.0727 201.917 13.0727C203.702 13.0727 206.335 14.2545 206.335 18.9455V26.9273H203.955V19.2545C203.955 16.6545 203.017 15.0909 201.033 15.0909C199.644 15.0909 198.562 16.1273 198.147 17.3273C198.039 17.6545 197.949 18.1091 197.949 18.5636V26.9273H195.568V18.8182C195.568 16.6545 194.63 15.0909 192.772 15.0909C191.239 15.0909 190.139 16.3273 189.742 17.5455C189.598 17.9091 189.544 18.3273 189.544 18.7455V26.9273H187.163V17.0545H187.127Z" fill="white"/>
<path d="M210.285 17.8C210.285 16.0727 210.231 14.6727 210.177 13.3818H212.378L212.486 15.7091H212.54C213.532 14.0545 215.119 13.0727 217.32 13.0727C220.566 13.0727 223.019 15.8364 223.019 19.9636C223.019 24.8364 220.079 27.2364 216.905 27.2364C215.119 27.2364 213.568 26.4545 212.774 25.1091H212.72V32.4727H210.303V17.8H210.285ZM212.702 21.4182C212.702 21.7818 212.756 22.1091 212.811 22.4182C213.261 24.1273 214.722 25.3091 216.472 25.3091C219.051 25.3091 220.548 23.1818 220.548 20.0727C220.548 17.3636 219.123 15.0364 216.544 15.0364C214.885 15.0364 213.316 16.2364 212.847 18.0909C212.756 18.4 212.684 18.7636 212.684 19.0909V21.4182H212.702Z" fill="white"/>
<path d="M226.085 7.05455H228.52V26.9273H226.085V7.05455Z" fill="white"/>
<path d="M235.356 9.58182C235.392 10.4182 234.779 11.0909 233.805 11.0909C232.939 11.0909 232.326 10.4182 232.326 9.58182C232.326 8.70909 232.957 8.03637 233.859 8.03637C234.779 8.03637 235.356 8.70909 235.356 9.58182ZM232.651 26.9273V13.3818H235.085V26.9273H232.651Z" fill="white"/>
<path d="M246.575 26.9273L246.376 25.2182H246.286C245.529 26.2727 244.086 27.2364 242.174 27.2364C239.45 27.2364 238.062 25.3091 238.062 23.3455C238.062 20.0727 240.947 18.2727 246.142 18.3091V18.0364C246.142 16.9091 245.835 14.9091 243.094 14.9091C241.849 14.9091 240.532 15.3091 239.595 15.9091L239.035 14.2909C240.154 13.5636 241.759 13.0909 243.454 13.0909C247.567 13.0909 248.559 15.9091 248.559 18.6364V23.7091C248.559 24.8909 248.613 26.0364 248.775 26.9636H246.575V26.9273ZM246.214 20.0182C243.545 19.9636 240.514 20.4364 240.514 23.0727C240.514 24.6727 241.561 25.4182 242.823 25.4182C244.573 25.4182 245.691 24.2909 246.07 23.1455C246.16 22.8909 246.214 22.6182 246.214 22.3636V20.0182Z" fill="white"/>
<path d="M252.527 17.0545C252.527 15.6545 252.491 14.5091 252.418 13.3818H254.583L254.727 15.6182H254.781C255.449 14.3273 257 13.0727 259.218 13.0727C261.076 13.0727 263.962 14.2 263.962 18.8364V26.9273H261.527V19.1091C261.527 16.9273 260.715 15.1091 258.425 15.1091C256.819 15.1091 255.557 16.2545 255.142 17.6364C255.034 17.9455 254.98 18.3636 254.98 18.7818V26.9273H252.545V17.0545H252.527Z" fill="white"/>
<path d="M277.507 26.4182C276.876 26.7455 275.451 27.2 273.647 27.2C269.589 27.2 266.956 24.4364 266.956 20.2909C266.956 16.1273 269.787 13.0909 274.17 13.0909C275.613 13.0909 276.894 13.4545 277.561 13.7818L277.002 15.6909C276.425 15.3636 275.505 15.0545 274.17 15.0545C271.086 15.0545 269.427 17.3455 269.427 20.1818C269.427 23.3091 271.429 25.2545 274.098 25.2545C275.487 25.2545 276.407 24.8909 277.092 24.5818L277.507 26.4182Z" fill="white"/>
<path d="M281.565 20.6C281.619 23.9273 283.729 25.3091 286.182 25.3091C287.932 25.3091 288.978 25 289.898 24.6182L290.313 26.3818C289.447 26.7818 287.986 27.2182 285.84 27.2182C281.709 27.2182 279.238 24.4727 279.238 20.3818C279.238 16.2909 281.619 13.0727 285.533 13.0727C289.916 13.0727 291.088 16.9636 291.088 19.4545C291.088 19.9636 291.034 20.3455 290.998 20.6H281.565ZM288.725 18.8364C288.761 17.2727 288.094 14.8364 285.335 14.8364C282.864 14.8364 281.781 17.1273 281.583 18.8364H288.725Z" fill="white"/>
<path d="M18.3248 19.8909C19.4106 19.8909 20.2908 19.0036 20.2908 17.9091C20.2908 16.8146 19.4106 15.9273 18.3248 15.9273C17.2391 15.9273 16.3589 16.8146 16.3589 17.9091C16.3589 19.0036 17.2391 19.8909 18.3248 19.8909Z" fill="white"/>
<path d="M18.3249 7.94545C18.9923 7.94545 19.5333 7.40006 19.5333 6.72727C19.5333 6.05449 18.9923 5.50909 18.3249 5.50909C17.6575 5.50909 17.1165 6.05449 17.1165 6.72727C17.1165 7.40006 17.6575 7.94545 18.3249 7.94545Z" fill="white"/>
<path d="M18.3249 30.1455C18.9923 30.1455 19.5333 29.6001 19.5333 28.9273C19.5333 28.2545 18.9923 27.7091 18.3249 27.7091C17.6575 27.7091 17.1165 28.2545 17.1165 28.9273C17.1165 29.6001 17.6575 30.1455 18.3249 30.1455Z" fill="white"/>
<path d="M25.7199 27.0364C26.3873 27.0364 26.9283 26.491 26.9283 25.8182C26.9283 25.1454 26.3873 24.6 25.7199 24.6C25.0525 24.6 24.5115 25.1454 24.5115 25.8182C24.5115 26.491 25.0525 27.0364 25.7199 27.0364Z" fill="white"/>
<path d="M25.7199 19.1273C26.3873 19.1273 26.9283 18.5819 26.9283 17.9091C26.9283 17.2363 26.3873 16.6909 25.7199 16.6909C25.0525 16.6909 24.5115 17.2363 24.5115 17.9091C24.5115 18.5819 25.0525 19.1273 25.7199 19.1273Z" fill="white"/>
<path d="M25.7199 11.4C26.3873 11.4 26.9283 10.8546 26.9283 10.1818C26.9283 9.50904 26.3873 8.96364 25.7199 8.96364C25.0525 8.96364 24.5115 9.50904 24.5115 10.1818C24.5115 10.8546 25.0525 11.4 25.7199 11.4Z" fill="white"/>
<path d="M11.3268 27.0364C11.9942 27.0364 12.5353 26.491 12.5353 25.8182C12.5353 25.1454 11.9942 24.6 11.3268 24.6C10.6594 24.6 10.1184 25.1454 10.1184 25.8182C10.1184 26.491 10.6594 27.0364 11.3268 27.0364Z" fill="white"/>
<path d="M11.3268 19.1273C11.9942 19.1273 12.5353 18.5819 12.5353 17.9091C12.5353 17.2363 11.9942 16.6909 11.3268 16.6909C10.6594 16.6909 10.1184 17.2363 10.1184 17.9091C10.1184 18.5819 10.6594 19.1273 11.3268 19.1273Z" fill="white"/>
<path d="M11.3268 11.4C11.9942 11.4 12.5353 10.8546 12.5353 10.1818C12.5353 9.50904 11.9942 8.96364 11.3268 8.96364C10.6594 8.96364 10.1184 9.50904 10.1184 10.1818C10.1184 10.8546 10.6594 11.4 11.3268 11.4Z" fill="white"/>
<path d="M18.3249 1.78182C18.813 1.78182 19.2087 1.38294 19.2087 0.890909C19.2087 0.398874 18.813 0 18.3249 0C17.8368 0 17.4412 0.398874 17.4412 0.890909C17.4412 1.38294 17.8368 1.78182 18.3249 1.78182Z" fill="white"/>
<path d="M9.72167 3.56364C10.2098 3.56364 10.6054 3.16476 10.6054 2.67273C10.6054 2.18069 10.2098 1.78182 9.72167 1.78182C9.23357 1.78182 8.83789 2.18069 8.83789 2.67273C8.83789 3.16476 9.23357 3.56364 9.72167 3.56364Z" fill="white"/>
<path d="M27.1626 3.56364C27.6507 3.56364 28.0464 3.16476 28.0464 2.67273C28.0464 2.18069 27.6507 1.78182 27.1626 1.78182C26.6745 1.78182 26.2788 2.18069 26.2788 2.67273C26.2788 3.16476 26.6745 3.56364 27.1626 3.56364Z" fill="white"/>
<path d="M10.1365 34.2182C10.6246 34.2182 11.0202 33.8193 11.0202 33.3273C11.0202 32.8352 10.6246 32.4364 10.1365 32.4364C9.64837 32.4364 9.25269 32.8352 9.25269 33.3273C9.25269 33.8193 9.64837 34.2182 10.1365 34.2182Z" fill="white"/>
<path d="M27.1626 34.2182C27.6507 34.2182 28.0464 33.8193 28.0464 33.3273C28.0464 32.8352 27.6507 32.4364 27.1626 32.4364C26.6745 32.4364 26.2788 32.8352 26.2788 33.3273C26.2788 33.8193 26.6745 34.2182 27.1626 34.2182Z" fill="white"/>
<path d="M18.3249 36C18.813 36 19.2087 35.6011 19.2087 35.1091C19.2087 34.6171 18.813 34.2182 18.3249 34.2182C17.8368 34.2182 17.4412 34.6171 17.4412 35.1091C17.4412 35.6011 17.8368 36 18.3249 36Z" fill="white"/>
<path d="M5.30272 7.92727C5.79082 7.92727 6.1865 7.5284 6.1865 7.03636C6.1865 6.54433 5.79082 6.14545 5.30272 6.14545C4.81463 6.14545 4.41895 6.54433 4.41895 7.03636C4.41895 7.5284 4.81463 7.92727 5.30272 7.92727Z" fill="white"/>
<path d="M5.30272 15.2909C5.79082 15.2909 6.1865 14.892 6.1865 14.4C6.1865 13.908 5.79082 13.5091 5.30272 13.5091C4.81463 13.5091 4.41895 13.908 4.41895 14.4C4.41895 14.892 4.81463 15.2909 5.30272 15.2909Z" fill="white"/>
<path d="M5.30272 22.6364C5.79082 22.6364 6.1865 22.2375 6.1865 21.7455C6.1865 21.2534 5.79082 20.8545 5.30272 20.8545C4.81463 20.8545 4.41895 21.2534 4.41895 21.7455C4.41895 22.2375 4.81463 22.6364 5.30272 22.6364Z" fill="white"/>
<path d="M5.30272 29.9818C5.79082 29.9818 6.1865 29.5829 6.1865 29.0909C6.1865 28.5989 5.79082 28.2 5.30272 28.2C4.81463 28.2 4.41895 28.5989 4.41895 29.0909C4.41895 29.5829 4.81463 29.9818 5.30272 29.9818Z" fill="white"/>
<path d="M31.6719 7.92727C32.16 7.92727 32.5556 7.5284 32.5556 7.03636C32.5556 6.54433 32.16 6.14545 31.6719 6.14545C31.1838 6.14545 30.7881 6.54433 30.7881 7.03636C30.7881 7.5284 31.1838 7.92727 31.6719 7.92727Z" fill="white"/>
<path d="M31.6719 15.2909C32.16 15.2909 32.5556 14.892 32.5556 14.4C32.5556 13.908 32.16 13.5091 31.6719 13.5091C31.1838 13.5091 30.7881 13.908 30.7881 14.4C30.7881 14.892 31.1838 15.2909 31.6719 15.2909Z" fill="white"/>
<path d="M31.6719 22.6364C32.16 22.6364 32.5556 22.2375 32.5556 21.7455C32.5556 21.2534 32.16 20.8545 31.6719 20.8545C31.1838 20.8545 30.7881 21.2534 30.7881 21.7455C30.7881 22.2375 31.1838 22.6364 31.6719 22.6364Z" fill="white"/>
<path d="M31.6719 29.9818C32.16 29.9818 32.5556 29.5829 32.5556 29.0909C32.5556 28.5989 32.16 28.2 31.6719 28.2C31.1838 28.2 30.7881 28.5989 30.7881 29.0909C30.7881 29.5829 31.1838 29.9818 31.6719 29.9818Z" fill="white"/>
<path d="M53.0627 0H50.718V36H53.0627V0Z" fill="white"/>
</g>
<defs>
<clipPath id="clip0_6_412">
<rect width="293" height="36" fill="white"/>
</clipPath>
</defs>
</svg>
