<?xml version="1.0" encoding="utf-8"?>
<!-- Generator: Adobe Illustrator 27.5.0, SVG Export Plug-In . SVG Version: 6.00 Build 0)  -->
<svg version="1.1" id="Ebene_1" xmlns="http://www.w3.org/2000/svg" xmlns:xlink="http://www.w3.org/1999/xlink" x="0px" y="0px"
	 viewBox="0 0 5576.5 1683.1" style="enable-background:new 0 0 5576.5 1683.1;" xml:space="preserve">
<style type="text/css">
	.st0{fill:#702382;}
</style>
<g>
	<path class="st0" d="M823.2,319.9L482,688.5h339.5c11.3,0,20.8,3.8,28.3,11.3c7.5,7.5,11.3,16.9,11.3,28.3v177.9
		c0,11.3-3.8,20.8-11.3,28.3c-7.6,7.6-17,11.3-28.3,11.3H115.9c-11.3,0-21.2-4-29.5-12.1c-8.4-8.1-12.6-17.8-12.6-29.2V758
		c0-10.2,1.4-18.8,4-25.9c2.7-7,7.6-14,14.6-21l348.4-369.4H128.8c-11.3,0-21-4.1-29.1-12.2c-8.1-8.1-12.1-17.8-12.1-29.1V126.6
		c0-11.3,4.2-21.2,12.5-29.5c8.3-8.3,18-12.5,28.7-12.5h671.7c11.3,0,21,4.2,29.2,12.5c8.1,8.3,12.1,18.2,12.1,29.5v145.5
		c0,10.2-1.3,18.9-4,25.9C835.1,305,830.2,312.3,823.2,319.9"/>
	<path class="st0" d="M1194.5,515.5c0,49,16.9,90.8,50.5,125.3s74.8,51.8,123.3,51.8c48.5,0,89.6-17.3,123.2-51.8
		c33.7-34.5,50.5-76.3,50.5-125.3s-16.8-90.8-50.5-125.3c-33.7-34.5-74.8-51.8-123.2-51.8c-48.5,0-89.6,17.3-123.3,51.8
		S1194.5,466.5,1194.5,515.5 M1538.1,904.3v-14.5c-28,27-59.7,47.2-95,60.6c-35.3,13.4-73.7,20.2-115.2,20.2
		c-122.9,0-226.3-43.9-310-131.8C934,751,892.2,643.2,892.2,515.5s41.9-235.5,125.7-323.3c83.8-87.9,187.1-131.8,310-131.8
		c41.4,0,79.9,6.8,115.2,20.2c35.3,13.4,67,33.4,95,59.8V125c0-11.9,3.8-21.6,11.3-29.1c7.5-7.6,17.2-11.3,29.1-11.3h219.8
		c11.9,0,21.6,3.8,29.2,11.3c7.5,7.5,11.3,17.2,11.3,29.1v779.3c0,11.3-3.9,21-11.7,29.1c-7.9,8.1-17.1,12.2-27.9,12.2h-219
		c-11.3,0-21.2-4-29.5-12.2C1542.2,925.3,1538.1,915.6,1538.1,904.3"/>
	<path class="st0" d="M2678.7,319.9l-341.2,368.6H2677c11.3,0,20.8,3.8,28.3,11.3c7.5,7.5,11.3,16.9,11.3,28.3v177.9
		c0,11.3-3.8,20.8-11.3,28.3c-7.6,7.6-17,11.3-28.3,11.3h-705.7c-11.3,0-21.2-4-29.5-12.1c-8.4-8.1-12.6-17.8-12.6-29.2V758
		c0-10.2,1.4-18.8,4-25.9c2.7-7,7.6-14,14.6-21l348.4-369.4h-312.1c-11.3,0-21-4.1-29.1-12.2c-8.1-8.1-12.1-17.8-12.1-29.1V126.6
		c0-11.3,4.2-21.2,12.5-29.5c8.3-8.3,18-12.5,28.7-12.5H2656c11.3,0,21,4.2,29.2,12.5c8.1,8.3,12.1,18.2,12.1,29.5v145.5
		c0,10.2-1.3,18.9-4,25.9C2690.5,305,2685.7,312.3,2678.7,319.9"/>
	<path class="st0" d="M3042.1,515.5c0,49,16.9,90.8,50.5,125.3c33.7,34.5,74.8,51.8,123.3,51.8c48.5,0,89.6-17.3,123.2-51.8
		c33.7-34.5,50.5-76.3,50.5-125.3c0-49-16.8-90.8-50.5-125.3c-33.7-34.5-74.8-51.8-123.2-51.8c-48.5,0-89.6,17.3-123.3,51.8
		C3059,424.7,3042.1,466.5,3042.1,515.5 M2739.8,515.5c0-126.1,46.4-233.5,139-322.1c92.7-88.7,205.1-133,337.1-133
		c132,0,244.4,44.3,337.1,133c92.7,88.6,139.1,196,139.1,322.1S3645.7,749,3553,837.6c-92.7,88.7-205,133-337.1,133
		c-132,0-244.4-44.3-337.1-133C2786.2,749,2739.8,641.6,2739.8,515.5"/>
	<path class="st0" d="M3926.6,515.5c0,49,16.7,90.8,50.4,125.3c33.7,34.5,74.9,51.8,123.4,51.8c48.5,0,89.4-17.3,123.1-51.8
		c33.7-34.5,50.7-76.3,50.7-125.3c0-49-16.9-90.8-50.7-125.3c-33.7-34.5-74.6-51.8-123.1-51.8c-48.5,0-89.7,17.3-123.4,51.8
		C3943.3,424.7,3926.6,466.5,3926.6,515.5 M3624.2,515.5c0-126.1,46.4-233.5,139-322.1c92.7-88.7,205.1-133,337.1-133
		s244.4,44.3,337.1,133c92.7,88.6,139.1,196,139.1,322.1s-46.4,233.5-139.1,322.1c-92.7,88.7-205,133-337.1,133
		s-244.4-44.3-337.1-133C3670.6,749,3624.2,641.6,3624.2,515.5"/>
	<path class="st0" d="M5072.9,321.5c-41,0-74.6,12.8-101,38.4c-26.4,25.6-39.6,60-39.6,103.1v442.2c0,11.8-3.8,21.5-11.3,29.1
		c-7.5,7.5-17.3,11.3-29.1,11.3H4672c-11.8,0-21.5-3.8-29.1-11.3c-7.5-7.6-11.3-17.3-11.3-29.1V125c0-11.9,3.8-21.6,11.3-29.1
		c7.6-7.6,17.3-11.3,29.1-11.3h219.9c11.8,0,21.6,3.8,29.1,11.3c7.6,7.5,11.3,17.2,11.3,29.1v62.3c27.4-41.5,62.4-73.1,104.7-94.6
		c42.3-21.5,90.9-32.3,145.9-32.3c108.4,0,190.4,32.2,246.2,96.6c55.8,64.4,83.6,158,83.6,280.9v467.3c0,11.8-3.8,21.5-11.3,29.1
		c-7.5,7.5-17.2,11.3-29.1,11.3h-219.8c-11.9,0-21.6-3.8-29.2-11.3c-7.5-7.6-11.3-17.3-11.3-29.1V462.9c0-43.1-12.9-77.5-38.8-103.1
		C5147.3,334.2,5113.9,321.5,5072.9,321.5"/>
</g>
<g>
	<path class="st0" d="M414.7,1390.5l0,143.6c-39,31.1-93.8,52-146.9,52c-114.7,0-206.3-88.7-206.3-200.1
		c0-111.3,92.1-198.9,208.6-198.9c54.8,0,108,20.9,145.8,54.3l-26,33.9c-32.2-28.8-75.7-45.8-119.8-45.8
		c-90.4,0-162.8,69.5-162.8,156.6c0,87.6,72.9,157.1,163.3,157.1c35.6,0,73.5-12.4,104-33.3l0-119.3H414.7z"/>
	<path class="st0" d="M711.9,1457.8c-8.5,0.6-17.5,1.1-26.6,1.1H580.3v124.9H535l0-395.6h150.3c98.9,0,156,48.6,156,132.8
		c0,65.6-31.7,109.6-88.7,128.3l92.7,134.5h-51.4L711.9,1457.8z M685.4,1415.4c71.8,0,112.5-31.7,112.5-93.3
		c0-59.9-40.7-90.4-112.5-90.4H580.3l0,183.7H685.4z"/>
	<path class="st0" d="M1268.1,1244.7l-27.1,34.5c-30.5-31.1-73.5-49.7-117-49.7c-89.3,0-161.1,69-161.1,156
		c0,86.5,71.8,156,161.1,156c43.5,0,85.9-18.1,117-47.5l27.7,31.1c-39,36.7-92.1,61-146.9,61c-114.2,0-204.6-88.7-204.6-200.6
		c0-110.8,91.6-198.4,206.3-198.4C1177.7,1187.1,1230.2,1209.1,1268.1,1244.7z"/>
	<path class="st0" d="M1884.7,1583.8l-0.6-326.1L1740,1542h-27.1l-143.6-284.3l0,326.1h-43l0-395.6h56l144.7,284.9l144.1-284.9h55.4
		l0,395.6H1884.7z"/>
	<path class="st0" d="M2092.1,1483.8l-44.1,100h-48l177.5-395.6h46.9l176.9,395.6h-49.2l-44.1-100H2092.1z M2199.5,1239.6
		l-88.2,200.6h177.5L2199.5,1239.6z"/>
	<path class="st0" d="M2634.1,1188.2c115.3,0,203.5,85.3,203.5,197.8c0,112.5-88.7,197.8-205.2,197.8h-158.3v-395.6H2634.1z
		 M2519.4,1540.9h115.3c88.2,0,157.1-66.1,157.1-154.3c0-88.7-70.1-154.9-158.8-154.9h-113.6V1540.9z"/>
	<path class="st0" d="M2976.1,1231.7v130h199.5v43.5h-199.5v135.6h230.6v43h-275.8v-395.6h268.5v43.5H2976.1z"/>
	<path class="st0" d="M3718.1,1223.2l-19.2,42.4c-35.6-23.7-77.4-33.3-109.1-33.3c-50.9,0-84.2,19.2-84.2,52.6
		c0,101.7,222.7,48.6,222.1,192.2c0,66.1-58.2,108.5-143,108.5c-57.6,0-114.2-24.9-151.5-60.5l20.3-40.7c36.7,35.6,87,56,131.7,56
		c57.1,0,92.7-23.2,92.7-61c0.6-104-222.1-48.6-222.1-190.5c0-62.2,54.8-102.3,136.8-102.3
		C3638.4,1186.5,3685.3,1201.2,3718.1,1223.2z"/>
	<path class="st0" d="M3831.2,1583.8l0-395.6h45.2l0,395.6H3831.2z"/>
	<path class="st0" d="M4365.3,1583.8l-0.6-326.1L4220.6,1542h-27.1l-143.6-284.3v326.1h-43v-395.6h56l144.7,284.9l144.1-284.9h55.4
		l0,395.6H4365.3z"/>
	<path class="st0" d="M4686.8,1188.2c97.8,0,154.3,48.6,154.3,132.8c0,87.6-56.5,137.9-154.3,137.9h-103.4v124.9h-45.2v-395.6
		H4686.8z M4583.4,1415.4h101.7c71.2,0,112.5-31.7,112.5-93.3c0-59.9-41.3-90.4-112.5-90.4h-101.7V1415.4z"/>
	<path class="st0" d="M5145.8,1540.9v43H4927v-395.6h45.2v352.7H5145.8z"/>
	<path class="st0" d="M5275.2,1231.7v130h199.5v43.5h-199.5v135.6h230.6v43l-275.8,0v-395.6h268.5v43.5H5275.2z"/>
</g>
</svg>
